HIERARCHY
ROOT Pelvis
{
	OFFSET 0.000000 0.000000 0.000000
	CHANNELS 6 Xposition Yposition Zposition Xrotation Yrotation Zrotation
	JOINT LeftUpLeg_virtual
	{
		OFFSET 0.000000 0.000000 0.000000
		CHANNELS 3 Xrotation Yrotation Zrotation
		JOINT LeftUpLeg
		{
			OFFSET 18.735201 -5.666702 -4.541200
			CHANNELS 3 Xrotation Yrotation Zrotation
			JOINT LeftLeg
			{
				OFFSET -0.021200 -31.938179 0.493100
				CHANNELS 3 Xrotation Yrotation Zrotation
				JOINT LeftFoot
				{
					OFFSET 0.021200 -31.938179 -4.336299
					CHANNELS 3 Xrotation Yrotation Zrotation
					JOINT LeftToeBase
					{
						OFFSET 0.943001 -26.722000 15.023500
						CHANNELS 3 Xrotation Yrotation Zrotation
						End Site
						{
							OFFSET 0 0 0
						}
					}
				}
			}
		}
	}
	JOINT RightUpLeg_virtual
	{
		OFFSET 0.000000 0.000000 0.000000
		CHANNELS 3 Xrotation Yrotation Zrotation
		JOINT RightUpLeg
		{
			OFFSET -18.735201 -5.666702 -4.541200
			CHANNELS 3 Xrotation Yrotation Zrotation
			JOINT RightLeg
			{
				OFFSET 0.018946 -31.938133 0.493100
				CHANNELS 3 Xrotation Yrotation Zrotation
				JOINT RightFoot
				{
					OFFSET -0.018946 -31.938126 -4.336299
					CHANNELS 3 Xrotation Yrotation Zrotation
					JOINT RightToeBase
					{
						OFFSET -0.943001 -26.722004 15.023500
						CHANNELS 3 Xrotation Yrotation Zrotation
						End Site
						{
							OFFSET 0 0 0
						}
					}
				}
			}
		}
	}
	JOINT Hips_virtual
	{
		OFFSET 0.000000 0.000000 0.000000
		CHANNELS 3 Xrotation Yrotation Zrotation
		JOINT Hips
		{
			OFFSET -0.000000 -0.000000 -0.000000
			CHANNELS 3 Xrotation Yrotation Zrotation
			JOINT Spine
			{
				OFFSET 0.000000 10.199997 -0.299500
				CHANNELS 3 Xrotation Yrotation Zrotation
				JOINT Spine1
				{
					OFFSET 0.000000 11.900002 -1.516600
					CHANNELS 3 Xrotation Yrotation Zrotation
					JOINT Spine2
					{
						OFFSET 0.000000 13.600006 -2.842500
						CHANNELS 3 Xrotation Yrotation Zrotation
						JOINT Neck_virtual
						{
							OFFSET 0.000000 0.000000 0.000000
							CHANNELS 3 Xrotation Yrotation Zrotation
							JOINT Neck
							{
								OFFSET 0.000000 9.624100 -2.890100
								CHANNELS 3 Xrotation Yrotation Zrotation
								JOINT Head
								{
									OFFSET 0.000000 14.068802 -1.351900
									CHANNELS 3 Xrotation Yrotation Zrotation
									End Site
									{
										OFFSET 0 0 0
									}
								}
							}
						}
						JOINT LeftShoulder_virtual
						{
							OFFSET 0.000000 0.000000 0.000000
							CHANNELS 3 Xrotation Yrotation Zrotation
							JOINT LeftShoulder
							{
								OFFSET 15.263000 10.923401 -0.547700
								CHANNELS 3 Xrotation Yrotation Zrotation
								JOINT LeftArm
								{
									OFFSET 25.438599 -2.830597 -13.032500
									CHANNELS 3 Xrotation Yrotation Zrotation
									JOINT LeftForeArm
									{
										OFFSET 29.960503 0.000000 0.000000
										CHANNELS 3 Xrotation Yrotation Zrotation
										JOINT LeftHand
										{
											OFFSET 27.849251 0.000000 0.000000
											CHANNELS 3 Xrotation Yrotation Zrotation
											End Site
											{
												OFFSET 0 0 0
											}
										}
									}
								}
							}
						}
						JOINT RightShoulder_virtual
						{
							OFFSET 0.000000 0.000000 0.000000
							CHANNELS 3 Xrotation Yrotation Zrotation
							JOINT RightShoulder
							{
								OFFSET -15.263000 10.923401 -0.547700
								CHANNELS 3 Xrotation Yrotation Zrotation
								JOINT RightArm
								{
									OFFSET -25.438599 -2.830597 -13.032500
									CHANNELS 3 Xrotation Yrotation Zrotation
									JOINT RightForeArm
									{
										OFFSET -29.960503 0.000000 0.000000
										CHANNELS 3 Xrotation Yrotation Zrotation
										JOINT RightHand
										{
											OFFSET -27.849251 0.000000 0.000000
											CHANNELS 3 Xrotation Yrotation Zrotation
											End Site
											{
												OFFSET 0 0 0
											}
										}
									}
								}
							}
						}
					}
				}
			}
		}
	}
}
MOTION
Frames: 12
Frame Time: 0.03333333
-2.697821 89.564415 0.682522 0.000000 0.000000 0.000000 -6.051112 -24.678116 2.251776 -16.675367 10.872041 10.968764 31.626300 10.635472 3.339709 -0.195050 20.270198 -11.588615 0.000000 0.000000 0.000000 -6.485279 -23.283524 2.180345 -5.315624 -34.556201 -12.301550 33.749887 6.886662 -6.012554 -28.904343 -21.270725 6.621861 0.000000 0.000000 0.000000 -6.389342 -23.817609 2.490385 -0.956709 0.086685 -1.081447 5.641842 -2.468112 -2.051683 2.094918 -2.510307 0.640741 0.000000 0.000000 0.000000 2.060608 -1.929595 0.189929 -0.137246 -0.206384 -0.998398 0.000000 0.000000 0.000000 1.701081 -2.076307 -0.035854 -0.118281 -16.917219 -18.557685 10.655261 7.917679 -36.691250 164.693797 -86.216692 164.585921 0.000000 0.000000 0.000000 2.091289 -1.852053 0.071669 1.067199 18.104513 10.147604 10.729363 31.040140 39.991072 174.420191 84.226396 -173.639555 0.000000 0.000000 0.000000 
-3.514702 89.717491 0.841049 0.000000 0.000000 0.000000 -6.162774 -26.140437 2.013113 -16.476515 11.047082 11.414663 32.053651 11.128119 3.378635 0.737294 20.860945 -11.173057 0.000000 0.000000 0.000000 -6.564888 -24.730824 1.977892 -4.455835 -34.273066 -11.470931 32.878625 7.236120 -6.019831 -28.980991 -20.618152 6.223096 0.000000 0.000000 0.000000 -6.457747 -25.168607 2.302353 -0.965366 0.013040 -1.097032 5.660532 -2.317510 -2.004677 2.102306 -2.413085 0.611137 0.000000 0.000000 0.000000 2.010750 -1.836866 0.161504 -0.130137 -0.159830 -0.991202 0.000000 0.000000 0.000000 1.661413 -1.979385 -0.051897 -0.138016 -16.955391 -18.539211 9.951414 7.152160 -36.988866 164.492375 -86.380856 164.372669 0.000000 0.000000 0.000000 2.080709 -1.754897 0.044896 1.068242 18.092522 10.134992 11.141000 30.403310 39.325668 175.666264 83.383195 -174.932797 0.000000 0.000000 0.000000 
-4.253107 89.911194 1.047619 0.000000 0.000000 0.000000 -6.334948 -27.618341 1.731361 -16.668633 11.214767 11.780630 32.737698 11.450246 3.349148 1.672988 21.172572 -10.400542 0.000000 0.000000 0.000000 -6.662759 -26.250560 1.719895 -3.669963 -33.901033 -10.726023 32.038351 7.288804 -5.944759 -28.775355 -19.840948 6.076882 0.000000 0.000000 0.000000 -6.545256 -26.526706 2.084859 -1.012372 -0.061274 -1.127381 5.664726 -2.092488 -1.945744 2.105667 -2.304270 0.574749 0.000000 0.000000 0.000000 1.955524 -1.735433 0.127720 -0.102328 -0.106192 -0.972683 0.000000 0.000000 0.000000 1.610323 -1.871921 -0.072732 -0.150179 -16.992855 -18.501456 9.277815 6.367999 -37.286740 164.344515 -86.549398 164.210561 0.000000 0.000000 0.000000 2.057534 -1.648310 0.012727 1.062339 18.102573 10.157182 11.575064 29.665994 38.696092 176.682159 82.486309 -175.994222 0.000000 0.000000 0.000000 
-4.919557 90.163376 1.296776 0.000000 0.000000 0.000000 -6.530864 -29.105570 1.421201 -17.209929 11.305837 12.003675 33.430235 11.504012 3.258604 2.570631 21.041795 -9.509894 0.000000 0.000000 0.000000 -6.788675 -27.797550 1.405284 -2.950299 -33.431747 -10.062956 31.236600 7.049728 -5.849043 -28.296005 -18.992466 6.089500 0.000000 0.000000 0.000000 -6.649189 -27.907154 1.834251 -1.041416 -0.116868 -1.198861 5.657755 -1.802624 -1.871308 2.106144 -2.188075 0.535907 0.000000 0.000000 0.000000 1.896360 -1.628486 0.090793 -0.059448 -0.047796 -0.941302 0.000000 0.000000 0.000000 1.552694 -1.756933 -0.094515 -0.152565 -17.027201 -18.444504 8.668609 5.594557 -37.576887 164.166834 -86.721587 164.019575 0.000000 0.000000 0.000000 2.026436 -1.535701 -0.020550 1.050745 18.122080 10.208943 12.029409 28.890775 38.106619 177.495019 81.569835 -176.848446 0.000000 0.000000 0.000000 
-5.502958 90.462860 1.552475 0.000000 0.000000 0.000000 -6.707039 -30.570305 1.111928 -18.010866 11.219275 12.026487 33.831570 11.174729 3.127960 3.374235 20.276784 -8.808015 0.000000 0.000000 0.000000 -6.936224 -29.306446 1.059337 -2.193422 -32.810204 -9.417667 30.344888 6.580124 -5.796881 -27.665902 -18.102042 6.222688 0.000000 0.000000 0.000000 -6.772149 -29.292557 1.555360 -1.042052 -0.154961 -1.282199 5.638873 -1.463637 -1.780326 2.104066 -2.066473 0.499545 0.000000 0.000000 0.000000 1.836275 -1.516845 0.053193 -0.007453 0.013267 -0.896960 0.000000 0.000000 0.000000 1.493313 -1.636648 -0.114821 -0.146697 -17.056041 -18.373065 8.150157 4.844857 -37.842127 163.830639 -86.913010 163.672861 0.000000 0.000000 0.000000 1.990780 -1.418773 -0.051948 1.035119 18.132945 10.280919 12.503039 28.151234 37.563899 178.118424 80.689662 -177.504841 0.000000 0.000000 0.000000 
-6.012038 90.791809 1.809872 0.000000 0.000000 0.000000 -6.824737 -31.962830 0.836955 -18.986690 10.949098 11.849798 33.745280 10.439091 2.954125 4.157712 18.802201 -8.521099 0.000000 0.000000 0.000000 -7.091973 -30.729458 0.700765 -1.387090 -32.028249 -8.790990 29.330526 5.946521 -5.787594 -27.086674 -17.184206 6.498995 0.000000 0.000000 0.000000 -6.909234 -30.645030 1.255782 -1.019225 -0.161017 -1.325060 5.607885 -1.095875 -1.679937 2.099264 -1.941454 0.468104 0.000000 0.000000 0.000000 1.777484 -1.401076 0.017085 0.048402 0.075061 -0.841092 0.000000 0.000000 0.000000 1.433516 -1.511644 -0.131658 -0.134462 -17.079021 -18.290401 7.728210 4.127803 -38.062640 163.157701 -87.131398 162.991591 0.000000 0.000000 0.000000 1.953490 -1.298951 -0.081364 1.015078 18.124237 10.366746 12.971109 27.506318 37.070278 178.588191 79.913104 -177.999115 0.000000 0.000000 0.000000 
-6.457047 91.104332 2.046169 0.000000 0.000000 0.000000 -6.890391 -33.240874 0.605731 -20.050524 10.616848 11.516630 33.114355 9.359220 2.719089 4.956922 16.688795 -8.691199 0.000000 0.000000 0.000000 -7.263450 -32.022710 0.357992 -0.573578 -31.125647 -8.209484 28.309980 5.208932 -5.794057 -26.550839 -16.258622 6.957340 0.000000 0.000000 0.000000 -7.059862 -31.936257 0.951641 -0.974748 -0.170259 -1.365427 5.567615 -0.718218 -1.581847 2.088661 -1.815162 0.440452 0.000000 0.000000 0.000000 1.719930 -1.282053 -0.016940 0.103771 0.137108 -0.777419 0.000000 0.000000 0.000000 1.374738 -1.382900 -0.146090 -0.119148 -17.091512 -18.201664 7.396992 3.444064 -38.226407 161.945493 -87.369239 161.772580 0.000000 0.000000 0.000000 1.914686 -1.177789 -0.110560 0.990524 18.093219 10.459344 13.408030 26.988905 36.609083 178.935192 79.281872 -178.361443 0.000000 0.000000 0.000000 
-6.843551 91.355843 2.277020 0.000000 0.000000 0.000000 -6.944258 -34.373716 0.409138 -21.100608 10.300657 11.071917 31.963923 8.081951 2.433929 5.781671 14.118192 -9.190190 0.000000 0.000000 0.000000 -7.430917 -33.152256 0.040259 0.163202 -30.205371 -7.716109 27.377343 4.374581 -5.758244 -25.996035 -15.351574 7.557749 0.000000 0.000000 0.000000 -7.222491 -33.139839 0.655458 -0.930170 -0.140775 -1.356740 5.517039 -0.346860 -1.494776 2.067723 -1.687982 0.413103 0.000000 0.000000 0.000000 1.664624 -1.160660 -0.050176 0.158221 0.197459 -0.709790 0.000000 0.000000 0.000000 1.315504 -1.250438 -0.160613 -0.106325 -17.099592 -18.123880 7.153926 2.784405 -38.335652 159.991581 -87.614682 159.811182 0.000000 0.000000 0.000000 1.870617 -1.055975 -0.141774 0.962650 18.041272 10.554381 13.799937 26.596830 36.175530 179.186529 78.821107 -178.620361 0.000000 0.000000 0.000000 
-7.187290 91.531387 2.486916 0.000000 0.000000 0.000000 -7.012423 -35.396875 0.222726 -22.016005 10.059249 10.546217 30.421786 6.786733 2.121952 6.663504 11.371520 -9.819303 0.000000 0.000000 0.000000 -7.594783 -34.145680 -0.260101 0.784001 -29.341205 -7.337335 26.610378 3.434294 -5.647705 -25.403668 -14.506473 8.159555 0.000000 0.000000 0.000000 -7.394537 -34.238837 0.382607 -0.881181 -0.104228 -1.351997 5.456723 0.004024 -1.421111 2.035476 -1.561168 0.383062 0.000000 0.000000 0.000000 1.609478 -1.037743 -0.084493 0.212022 0.256057 -0.642473 0.000000 0.000000 0.000000 1.253938 -1.116460 -0.178265 -0.101197 -17.110730 -18.069863 7.001119 2.148459 -38.401864 157.174592 -87.854517 156.983210 0.000000 0.000000 0.000000 1.819255 -0.935843 -0.177140 0.934055 17.980799 10.647468 14.155412 26.306597 35.762474 179.364360 78.511959 -178.798165 0.000000 0.000000 0.000000 
-7.486976 91.623352 2.669228 0.000000 0.000000 0.000000 -7.129902 -36.341920 0.029600 -22.617111 9.916954 9.950253 28.624548 5.636896 1.844207 7.550301 8.701290 -10.384335 0.000000 0.000000 0.000000 -7.748984 -35.055748 -0.523211 1.297788 -28.498997 -7.050855 26.003686 2.408486 -5.492988 -24.712420 -13.735273 8.699406 0.000000 0.000000 0.000000 -7.567027 -35.249841 0.138950 -0.837402 -0.062296 -1.347059 5.391615 0.324311 -1.360256 1.992518 -1.436816 0.349877 0.000000 0.000000 0.000000 1.555356 -0.916685 -0.121320 0.266550 0.311815 -0.578104 0.000000 0.000000 0.000000 1.188505 -0.982544 -0.200245 -0.104308 -17.126860 -18.049612 6.932224 1.557226 -38.424342 153.003450 -88.100295 152.798435 0.000000 0.000000 0.000000 1.756723 -0.819710 -0.217199 0.907822 17.917157 10.734055 14.486973 26.086632 35.390564 179.479504 78.317859 -178.907448 0.000000 0.000000 0.000000 
-7.750966 91.666794 2.812061 0.000000 0.000000 0.000000 -7.279451 -37.258825 -0.170428 -22.754502 9.868463 9.295484 26.651113 4.759111 1.654400 8.379988 6.316551 -10.791607 0.000000 0.000000 0.000000 -7.889040 -35.907561 -0.743624 1.731462 -27.652436 -6.849861 25.473776 1.348099 -5.333350 -23.925492 -13.024525 9.191762 0.000000 0.000000 0.000000 -7.741470 -36.203657 -0.074154 -0.814023 0.023083 -1.336703 5.325633 0.605203 -1.310808 1.940413 -1.315259 0.313869 0.000000 0.000000 0.000000 1.500973 -0.799189 -0.160050 0.325045 0.363110 -0.517244 0.000000 0.000000 0.000000 1.117537 -0.851056 -0.225521 -0.114421 -17.142878 -18.062235 6.937004 1.028133 -38.400772 147.101511 -88.351584 146.883737 0.000000 0.000000 0.000000 1.683137 -0.709486 -0.260749 0.887141 17.856304 10.809326 14.810205 25.902509 35.086388 179.542464 78.203084 -178.959945 0.000000 0.000000 0.000000 
-7.967829 91.683952 2.908146 0.000000 0.000000 0.000000 -7.447608 -38.149362 -0.380838 -22.400065 9.922142 8.615399 24.636547 4.222710 1.595449 8.995576 4.384041 -10.957603 0.000000 0.000000 0.000000 -8.020218 -36.727945 -0.920366 2.118106 -26.794769 -6.713412 24.983012 0.292982 -5.176960 -23.160775 -12.365286 9.626263 0.000000 0.000000 0.000000 -7.912889 -37.093063 -0.264281 -0.821678 0.102524 -1.314357 5.267385 0.843714 -1.276182 1.884042 -1.198625 0.278223 0.000000 0.000000 0.000000 1.447688 -0.686075 -0.198185 0.387909 0.409712 -0.458716 0.000000 0.000000 0.000000 1.042430 -0.724444 -0.252905 -0.128387 -17.157205 -18.100204 7.003824 0.572829 -38.329283 139.287624 -88.585286 139.057761 0.000000 0.000000 0.000000 1.601301 -0.606251 -0.306644 0.875710 17.799476 10.862501 15.124552 25.733510 34.858632 179.556179 78.126914 -178.959521 0.000000 0.000000 0.000000 
